# xmcd CD database file
#
# Track frame offsets:
#	150
#	20462
#	39075
#	59352
#
# Disc length: 1035 seconds
#
# Revision: 1
# Processed by: cddbd v1.5.2PL0 Copyright (c) Steve Scherf et al.
# Submitted via: CDex 1.70beta2
#
DISCID=26040904
DTITLE=佐々木ゆう子 - pray
DYEAR=1999
DGENRE=J ポップ
TTITLE0=pray
TTITLE1=ギュッと ずっと…
TTITLE2=pray(instrumental)
TTITLE3=ギュッと ずっと…(instrumental)
EXTD=YEAR: 1999
EXTT0=
EXTT1=
EXTT2=
EXTT3=
PLAYORDER=
